<?xml version="1.0" encoding="UTF-8"?>
<svg version="1.1" xmlns="http://www.w3.org/2000/svg" width="595" height="175">
<path d="M0 0 C10.23 0 20.46 0 31 0 C31.33 19.8 31.66 39.6 32 60 C37.71376953 53.503125 37.71376953 53.503125 43.54296875 46.875 C48.69074372 41.18597869 53.91406401 35.57262971 59.1875 30 C59.86161423 29.28736496 60.53572845 28.57472992 61.23027039 27.84049988 C90.52558951 -2.93222523 90.52558951 -2.93222523 109.20939636 -4.20227051 C118.67107921 -4.25249842 127.95604333 -2.70901928 137 0 C136.34 0.33 135.68 0.66 135 1 C134.71542938 1.58959 134.43085876 2.17917999 134.13766479 2.78663635 C132.7345949 5.51635421 130.97832034 7.25411771 128.79736328 9.41381836 C127.92951202 10.27829086 127.06166077 11.14276337 126.16751099 12.03343201 C125.22793549 12.95954788 124.28835999 13.88566376 123.3203125 14.83984375 C122.34575303 15.80812691 121.37171085 16.77693096 120.39816284 17.74623108 C117.83602673 20.2950812 115.26838568 22.8383063 112.69909668 25.37994385 C108.59306318 29.44283136 104.49368471 33.51240415 100.39764023 37.58535957 C98.97096242 39.00187651 97.54070341 40.41478364 96.11038208 41.82762146 C94.79914871 43.12905846 94.79914871 43.12905846 93.46142578 44.45678711 C92.69468536 45.21527451 91.92794495 45.9737619 91.13796997 46.75523376 C88.93694588 49.06620381 86.97835797 51.49790283 85 54 C83.86481897 55.03560375 82.69987578 56.04009937 81.5 57 C78.58252975 59.41875738 76.3311669 62.00278541 74 65 C73.01 65.66 72.02 66.32 71 67 C71.73028028 70.10128715 71.73028028 70.10128715 74.125 71.6875 C76.49076049 73.59039431 78.16072595 75.26665082 80.08984375 77.55859375 C85.04988669 83.30080733 90.51217881 88.5249209 95.94335938 93.81640625 C96.72388672 94.58597656 97.50441406 95.35554688 98.30859375 96.1484375 C99.01814209 96.84114746 99.72769043 97.53385742 100.45874023 98.24755859 C102 100 102 100 102 102 C102.66 102 103.32 102 104 102 C104 102.66 104 103.32 104 104 C105.485 104.495 105.485 104.495 107 105 C107 105.66 107 106.32 107 107 C108.485 107.495 108.485 107.495 110 108 C110 108.66 110 109.32 110 110 C110.66 110 111.32 110 112 110 C113.39477539 111.41821289 113.39477539 111.41821289 115.03515625 113.41015625 C119.24260082 118.35938519 123.80963959 122.88422235 128.4375 127.4375 C130.06343804 129.03809217 131.68726587 130.64083187 133.30859375 132.24609375 C134.37291626 133.29301392 134.37291626 133.29301392 135.45874023 134.36108398 C137 136 137 136 137 137 C130.79307871 137.27386293 124.58973779 137.47239316 118.37817383 137.60424805 C116.27012831 137.65925176 114.16249641 137.73408744 112.0559082 137.82983398 C92.64400917 138.68941843 92.64400917 138.68941843 86.67854309 133.25996399 C84.56741637 130.97619311 82.7657275 128.55755307 81 126 C78.18586048 122.40651052 75.26717551 119.19052624 72 116 C70.92313812 114.92582189 69.84769302 113.85022216 68.7734375 112.7734375 C68.2165625 112.2165625 67.6596875 111.6596875 67.0859375 111.0859375 C64.390625 108.390625 61.6953125 105.6953125 59 103 C58.165896 102.227771 58.165896 102.227771 57.31494141 101.43994141 C56 100 56 100 56 98 C55.01 97.67 54.02 97.34 53 97 C51.15500602 95.12382302 49.6316401 93.07262391 48 91 C44.87250593 92.38463944 42.7595015 93.99522423 40.375 96.4375 C39.78460938 97.03433594 39.19421875 97.63117188 38.5859375 98.24609375 C36.81556961 100.11781258 36.81556961 100.11781258 35 103 C34.34 103 33.68 103 33 103 C32.505 104.485 32.505 104.485 32 106 C31.34 106 30.68 106 30 106 C29.72978027 106.5969165 29.45956055 107.19383301 29.18115234 107.80883789 C28.00892606 109.98344122 26.8671068 111.35149082 25.1015625 113.05859375 C24.53953125 113.60966797 23.9775 114.16074219 23.3984375 114.72851562 C22.81320313 115.29248047 22.22796875 115.85644531 21.625 116.4375 C17.81363007 120.13401838 14.2586319 123.79154266 11 128 C9.3540349 129.68711423 7.68762851 131.3545622 6 133 C5.278125 133.763125 4.55625 134.52625 3.8125 135.3125 C2 137 2 137 0 137 C0 91.79 0 46.58 0 0 Z " fill="#FFFFFF" transform="translate(152,34)"/>
<path d="M0 0 C0.89203125 0.4228125 1.7840625 0.845625 2.703125 1.28125 C20.32190163 10.81090277 31.33971229 27.21997399 37 46 C39.92628857 58.68653154 39.42520711 74.80182041 35 87 C34.74476563 87.81726563 34.48953125 88.63453125 34.2265625 89.4765625 C28.76054771 105.27284379 15.88536948 119.1272292 1.01171875 126.4765625 C-14.82829937 133.36002654 -33.45718682 134.90074479 -49.96484375 129.25390625 C-59.48646842 125.32026208 -66.69916859 120.26426631 -74 113 C-74.69996094 112.33484375 -75.39992188 111.6696875 -76.12109375 110.984375 C-84.96619228 101.94961549 -90.57499904 89.31315144 -93 77 C-93.226875 75.88625 -93.45375 74.7725 -93.6875 73.625 C-95.54493253 52.07878271 -90.00223157 33.71491877 -77.1015625 16.4609375 C-70.59182817 8.8380144 -62.07382396 3.12332608 -53 -1 C-52.10796875 -1.41378906 -51.2159375 -1.82757813 -50.296875 -2.25390625 C-34.78404276 -8.20602236 -14.89965704 -7.10948102 0 0 Z M-58.1171875 39.43359375 C-64.83944943 48.59651094 -66.96563863 59.32665869 -65.4375 70.4375 C-63.0955035 81.23841808 -57.70542031 90.17796389 -49 97 C-39.97146991 102.60252537 -31.54814023 103.87800939 -21 103 C-9.73433928 100.24426804 -1.91198379 94.21159817 5 85 C6.67824612 81.74897131 7.92366689 78.49167585 9 75 C9.33 74.01 9.66 73.02 10 72 C10.88571602 58.52550055 9.87899097 47.69894817 0.8359375 36.99609375 C-5.99238798 29.57210583 -13.46880968 24.78812895 -23.72265625 23.55078125 C-38.96303172 23.10116692 -48.21681656 28.05364708 -58.1171875 39.43359375 Z " fill="#FFFFFF" transform="translate(371,39)"/>
<path d="M0 0 C10.56 0 21.12 0 32 0 C32 34.65 32 69.3 32 105 C56.42 105 80.84 105 106 105 C106 115.56 106 126.12 106 137 C71.35 137 36.7 137 1 137 C0.835 122.748125 0.67 108.49625 0.5 93.8125 C0.44779297 89.4191333 0.39558594 85.0257666 0.34179688 80.49926758 C0.03488499 53.66502194 -0.05803923 26.83588671 0 0 Z " fill="#FFFFFF" transform="translate(422,34)"/>
<path d="M0 0 C2.475 0.495 2.475 0.495 5 1 C5.38218767 2.65614657 5.71395102 4.32457024 6 6 C5.67 6.33 5.34 6.66 5 7 C4.92686433 9.53049402 4.90752473 12.03304837 4.9375 14.5625 C4.94201172 15.27341797 4.94652344 15.98433594 4.95117188 16.71679688 C4.96299136 18.47790013 4.98092737 20.23896036 5 22 C3.68 22.33 2.36 22.66 1 23 C1.82242188 23.08636719 2.64484375 23.17273438 3.4921875 23.26171875 C13.34066641 24.5013079 21.56257453 26.82746797 28.69017029 34.09225464 C31.21973988 37.77653101 30.87393711 41.85084593 30.83203125 46.18359375 C30.8441993 47.64418968 30.8441993 47.64418968 30.85661316 49.1342926 C30.86505412 51.18758444 30.85825549 53.24098865 30.8371582 55.29418945 C30.81259378 58.42554522 30.85726366 61.55070893 30.90820312 64.68164062 C30.90783259 66.68229682 30.90340955 68.68295722 30.89453125 70.68359375 C30.92049126 72.07764687 30.92049126 72.07764687 30.94697571 73.49986267 C30.83852202 78.57231228 30.23002062 81.34595919 26.61572266 85.03369141 C18.42175194 92.23621697 9.20993923 93.87448018 -1.35546875 93.359375 C-8.52593648 92.65231923 -13.91076317 89.67891392 -20 86 C-20 85.34 -20 84.68 -20 84 C-20.99 83.67 -21.98 83.34 -23 83 C-30.18903686 74.03371795 -32.76663545 65.32430081 -32 54 C-31.5 50.9375 -31.5 50.9375 -31 49 C-31.73605469 48.8865625 -32.47210938 48.773125 -33.23046875 48.65625 C-36.06203813 47.98529985 -37.86510402 47.03913019 -40.3125 45.5 C-44.64868852 42.97540702 -48.01676052 42.27181306 -53 42 C-53 40.02 -53 38.04 -53 36 C-50.625 35.375 -50.625 35.375 -48 35 C-47.34 35.66 -46.68 36.32 -46 37 C-42.41656024 37.16677282 -42.41656024 37.16677282 -39 37 C-37.99782936 33.41672247 -37.99782936 33.41672247 -39 30 C-40.97888961 29.27306096 -42.97954558 28.60183749 -45 28 C-45.042721 26.33388095 -45.04063832 24.66617115 -45 23 C-44 22 -44 22 -41.4375 21.9375 C-40.2309375 21.9684375 -40.2309375 21.9684375 -39 22 C-38.34 23.32 -37.68 24.64 -37 26 C-34.69 26 -32.38 26 -30 26 C-30.495 19.565 -30.495 19.565 -31 13 C-32.65 12.34 -34.3 11.68 -36 11 C-35.67 9.35 -35.34 7.7 -35 6 C-33.35 5.67 -31.7 5.34 -30 5 C-28.9375 6.875 -28.9375 6.875 -28 9 C-28.33 9.66 -28.66 10.32 -29 11 C-28.484375 11.2475 -27.96875 11.495 -27.4375 11.75 C-25 13 -25 13 -23.28125 14.05859375 C-21.56275368 15.11080866 -19.78244203 16.06016693 -18 17 C-17.01 16.67 -16.02 16.34 -15 16 C-14.67 14.02 -14.34 12.04 -14 10 C-14.99 9.34 -15.98 8.68 -17 8 C-16.67 6.35 -16.34 4.7 -16 3 C-14.34385343 2.61781233 -12.67542976 2.28604898 -11 2 C-9.34623289 3.65376711 -9.36528792 5.80948364 -8.9375 8.0625 C-8.76089844 8.98160156 -8.58429688 9.90070312 -8.40234375 10.84765625 C-8.20318359 11.91306641 -8.20318359 11.91306641 -8 13 C-6.68 13.33 -5.36 13.66 -4 14 C-1.7628112 11.31180732 -1.7628112 11.31180732 0 8 C-0.80161791 5.32854463 -0.80161791 5.32854463 -2 3 C-1.34 2.01 -0.68 1.02 0 0 Z M-21 31 C-20.67 31.66 -20.34 32.32 -20 33 C-19.67 32.34 -19.34 31.68 -19 31 C-19.66 31 -20.32 31 -21 31 Z M-24 34 C-23 36 -23 36 -23 36 Z M-27 38 C-26 40 -26 40 -26 40 Z M-30 44 C-29 46 -29 46 -29 46 Z M-31 46 C-30 48 -30 48 -30 48 Z " fill="#FFFFFF" transform="translate(121,2)"/>
<path d="M0 0 C0.18542308 9.95287816 0.32753708 19.90534509 0.41449738 29.85959911 C0.45623675 34.48197144 0.51283815 39.10316164 0.60351562 43.72485352 C0.69049242 48.18588666 0.73828356 52.64578365 0.75901794 57.10759926 C0.77379147 58.80900274 0.80264328 60.51034448 0.84584045 62.21126366 C1.17033076 75.51852549 1.17033076 75.51852549 -1.70678711 79.16055298 C-5.95078297 81.9441906 -9.93948055 82.84341991 -15 82 C-20.47607828 79.59052556 -22.42377397 75.99086712 -24.921875 70.828125 C-27.88233488 63.06228097 -28.38734483 56.0056018 -28.375 47.75 C-28.37338867 46.6369751 -28.37177734 45.5239502 -28.37011719 44.37719727 C-28.25207662 36.49336047 -27.53265024 30.13788918 -24 23 C-23.66484375 22.23945312 -23.3296875 21.47890625 -22.984375 20.6953125 C-21.14383999 16.70748664 -19.02484381 13.22650007 -16 10 C-15.34 10 -14.68 10 -14 10 C-14 9.34 -14 8.68 -14 8 C-12.390625 6.5625 -12.390625 6.5625 -10.25 5 C-9.55390625 4.484375 -8.8578125 3.96875 -8.140625 3.4375 C-3.02173913 0 -3.02173913 0 0 0 Z " fill="#FFFFFF" transform="translate(151,90)"/>
</svg>
